# xmcd
# 
# Track frame offsets:
#     183
#     19165
#     38030
#     54545
#     68358
#     86363
#     104213
#     120150
#     141993
#     160663
#     177655
#     193068
#     211425
#     228293
# 
# Disc length: 3229
# 
# Revision: 1
# Processed by: cddbd v1.5.2PL0 Copyright (c) Steve Scherf et al.
# Submitted via: BonkEnc v1.0.8
# 
DISCID=bc0c9b0e
DTITLE=GEORGE BACKER SELECTION - The Very Best Of
DYEAR=1991
DGENRE=POP
TTITLE0=Santa Lucia By Night
TTITLE1=Manolito
TTITLE2=Live And Let Love
TTITLE3=Save All Your Lovesongs
TTITLE4=Before The Next Teardrop Falls
TTITLE5=True Love
TTITLE6=You Never Break My Heart (No More)
TTITLE7=This Old House
TTITLE8=Viva America
TTITLE9=Jenny
TTITLE10=I Love You
TTITLE11=Forever Loely
TTITLE12=Bella Maria
TTITLE13=When You Learn To Fly
EXTD=This Compilation 1991 - Licensed from RED BULLET\nPublished by DIAMOND
EXTT0=
EXTT1=
EXTT2=
EXTT3=
EXTT4=
EXTT5=
EXTT6=
EXTT7=
EXTT8=
EXTT9=
EXTT10=
EXTT11=
EXTT12=
EXTT13=
PLAYORDER=
